<svg width="512" height="512" viewBox="0 0 512 512" fill="none" xmlns="http://www.w3.org/2000/svg">
<g clip-path="url(#clip0)">
<path d="M384 452.267H365.363C366.319 449.588 366.933 446.737 366.933 443.734C366.933 429.62 355.447 418.134 341.333 418.134V368.316C341.333 349.389 337.92 330.693 331.195 312.738C326.749 300.877 324.377 281.259 324.283 256H341.333C355.447 256 366.933 244.514 366.933 230.4C366.933 216.286 355.447 204.8 341.333 204.8H315.733V182.562C322.619 174.942 341.333 152.03 341.333 128C341.333 99.2 314.385 71.91 313.241 70.767C310.323 67.849 306.124 63.462 301.388 58.24C297.889 63.488 294.391 68.736 290.892 73.984C284.577 83.465 278.254 92.937 271.939 102.417C269.823 105.591 267.706 108.766 265.59 111.94C263.175 115.558 260.794 119.535 255.802 119.415C250.46 119.287 248.037 114.363 245.451 110.481C242.831 106.556 240.22 102.63 237.6 98.705C231.209 89.122 224.826 79.539 218.434 69.956C215.831 66.048 213.229 62.148 210.626 58.248C205.89 63.47 201.692 67.857 198.773 70.775C197.63 71.918 170.673 99.208 170.673 128.008C170.673 152.038 189.395 174.958 196.273 182.57V204.8H170.673C156.559 204.8 145.073 216.286 145.073 230.4C145.073 244.514 156.559 256 170.673 256H187.723C187.638 281.259 185.265 300.877 180.82 312.738C174.079 330.692 170.665 349.389 170.665 368.316V418.134C156.551 418.134 145.065 429.62 145.065 443.734C145.065 446.738 145.679 449.588 146.644 452.267H128C113.886 452.267 102.4 463.753 102.4 477.867V486.4C102.4 500.514 113.886 512 128 512H384C398.114 512 409.6 500.514 409.6 486.4V477.867C409.6 463.753 398.114 452.267 384 452.267ZM170.667 238.933C165.965 238.933 162.134 235.102 162.134 230.4C162.134 225.698 165.965 221.867 170.667 221.867H204.8H307.2H341.333C346.043 221.867 349.866 225.698 349.866 230.4C349.866 235.102 346.043 238.933 341.333 238.933H315.733H196.267H170.667ZM341.333 452.267H170.667C165.965 452.267 162.134 448.436 162.134 443.734C162.134 439.032 165.965 435.201 170.667 435.201H179.2H332.8H341.333C346.043 435.201 349.866 439.032 349.866 443.734C349.867 448.435 346.044 452.267 341.333 452.267Z" fill="white"/>
<path d="M264.098 5.837C262.938 2.355 259.678 0 256 0C252.331 0 249.071 2.347 247.902 5.837C244.344 16.504 233.336 31.565 222.225 44.894L256 95.556L289.775 44.894C278.665 31.565 267.648 16.503 264.098 5.837Z" fill="white"/>
</g>
<defs>
<clipPath id="clip0">
<rect width="512" height="512" fill="white"/>
</clipPath>
</defs>
</svg>
