<?xml version="1.0" encoding="iso-8859-1"?>
<!-- Generator: Adobe Illustrator 19.0.0, SVG Export Plug-In . SVG Version: 6.00 Build 0)  -->
<svg version="1.1" id="Capa_1" xmlns="http://www.w3.org/2000/svg" xmlns:xlink="http://www.w3.org/1999/xlink" x="0px" y="0px"
	 viewBox="0 0 512 512" style="enable-background:new 0 0 512 512;" xml:space="preserve">
<g>
	<g>
		<path d="M384,452.267h-18.637c0.956-2.679,1.57-5.53,1.57-8.533c0-14.114-11.486-25.6-25.6-25.6v-49.818
			c0-18.927-3.413-37.623-10.138-55.578c-4.446-11.861-6.818-31.479-6.912-56.738h17.05c14.114,0,25.6-11.486,25.6-25.6
			c0-14.114-11.486-25.6-25.6-25.6h-25.6v-22.238c6.886-7.62,25.6-30.532,25.6-54.562c0-28.8-26.948-56.09-28.092-57.233
			c-2.918-2.918-7.117-7.305-11.853-12.527c-3.499,5.248-6.997,10.496-10.496,15.744c-6.315,9.481-12.638,18.953-18.953,28.433
			c-2.116,3.174-4.233,6.349-6.349,9.523c-2.415,3.618-4.796,7.595-9.788,7.475c-5.342-0.128-7.765-5.052-10.351-8.934
			c-2.62-3.925-5.231-7.851-7.851-11.776c-6.391-9.583-12.774-19.166-19.166-28.749c-2.603-3.908-5.205-7.808-7.808-11.708
			c-4.736,5.222-8.934,9.609-11.853,12.527c-1.143,1.143-28.1,28.433-28.1,57.233c0,24.03,18.722,46.95,25.6,54.562V204.8h-25.6
			c-14.114,0-25.6,11.486-25.6,25.6s11.486,25.6,25.6,25.6h17.05c-0.085,25.259-2.458,44.877-6.903,56.738
			c-6.741,17.954-10.155,36.651-10.155,55.578v49.818c-14.114,0-25.6,11.486-25.6,25.6c0,3.004,0.614,5.854,1.579,8.533H128
			c-14.114,0-25.6,11.486-25.6,25.6v8.533c0,14.114,11.486,25.6,25.6,25.6h256c14.114,0,25.6-11.486,25.6-25.6v-8.533
			C409.6,463.753,398.114,452.267,384,452.267z M170.667,238.933c-4.702,0-8.533-3.831-8.533-8.533c0-4.702,3.831-8.533,8.533-8.533
			H204.8h102.4h34.133c4.71,0,8.533,3.831,8.533,8.533c0,4.702-3.823,8.533-8.533,8.533h-25.6H196.267H170.667z M341.333,452.267
			H170.667c-4.702,0-8.533-3.831-8.533-8.533c0-4.702,3.831-8.533,8.533-8.533h8.533h153.6h8.533c4.71,0,8.533,3.831,8.533,8.533
			C349.867,448.435,346.044,452.267,341.333,452.267z"/>
	</g>
</g>
<g>
	<g>
		<path d="M264.098,5.837C262.938,2.355,259.678,0,256,0c-3.669,0-6.929,2.347-8.098,5.837
			c-3.558,10.667-14.566,25.728-25.677,39.057L256,95.556l33.775-50.662C278.665,31.565,267.648,16.503,264.098,5.837z"/>
	</g>
</g>
<g>
</g>
<g>
</g>
<g>
</g>
<g>
</g>
<g>
</g>
<g>
</g>
<g>
</g>
<g>
</g>
<g>
</g>
<g>
</g>
<g>
</g>
<g>
</g>
<g>
</g>
<g>
</g>
<g>
</g>
</svg>
