<svg width="512" height="512" viewBox="0 0 512 512" fill="none" xmlns="http://www.w3.org/2000/svg">
<g clip-path="url(#clip0)">
<path d="M341.333 457.267H170.667C163.203 457.267 157.134 451.197 157.134 443.734C157.134 436.271 163.203 430.201 170.667 430.201H179.2H332.8H341.333C348.807 430.201 354.865 436.273 354.866 443.733L341.333 457.267ZM341.333 457.267C348.808 457.267 354.867 451.194 354.866 443.734L341.333 457.267ZM360.654 450.587L358.27 457.267H365.363H384C395.352 457.267 404.6 466.514 404.6 477.867V486.4C404.6 497.753 395.352 507 384 507H128C116.647 507 107.4 497.753 107.4 486.4V477.867C107.4 466.514 116.647 457.267 128 457.267H146.644H153.759L151.348 450.573C150.537 448.32 150.065 446.048 150.065 443.734C150.065 432.381 159.312 423.134 170.665 423.134H175.665V418.134V368.316C175.665 349.997 178.968 331.895 185.501 314.495L185.502 314.493C190.274 301.759 192.637 281.395 192.723 256.017L192.74 251H187.723H170.673C159.32 251 150.073 241.753 150.073 230.4C150.073 219.047 159.32 209.8 170.673 209.8H196.273H201.273V204.8V182.57V180.646L199.983 179.218C196.681 175.564 190.533 168.226 185.234 158.963C179.902 149.643 175.673 138.791 175.673 128.008C175.673 115.048 181.796 102.017 188.484 91.7491C195.104 81.5853 201.867 74.7521 202.308 74.3105C204.355 72.2647 206.998 69.5314 209.998 66.3159C211.423 68.4519 212.848 70.5887 214.273 72.7278L214.274 72.7305C217.66 77.8065 221.04 82.8768 224.42 87.9481C227.424 92.4563 230.43 96.9651 233.44 101.479L233.441 101.481C234.75 103.441 236.056 105.402 237.364 107.365L237.375 107.382C238.678 109.338 239.983 111.295 241.29 113.253C241.502 113.571 241.742 113.949 242.009 114.365C243.011 115.936 244.374 118.071 245.917 119.745C248.102 122.115 251.237 124.307 255.682 124.414C259.761 124.512 262.826 122.85 265.089 120.72C266.915 119.002 268.356 116.822 269.399 115.243C269.521 115.058 269.638 114.882 269.749 114.716L269.75 114.713L272.925 109.952L276.099 105.19L276.1 105.189C279.17 100.581 282.256 95.9532 285.342 91.3246C288.584 86.4634 291.826 81.6009 295.052 76.7577C296.802 74.1335 298.551 71.5094 300.3 68.8854L300.307 68.875C300.877 68.0199 301.447 67.1648 302.017 66.3097C305.018 69.5248 307.66 72.2575 309.705 74.3025L309.707 74.3041C310.147 74.7435 316.907 81.5764 323.526 91.7405C330.212 102.008 336.333 115.039 336.333 128C336.333 138.784 332.105 149.633 326.775 158.952C321.477 168.214 315.329 175.551 312.023 179.21L310.733 180.637V182.562V204.8V209.8H315.733H341.333C352.686 209.8 361.933 219.047 361.933 230.4C361.933 241.753 352.685 251 341.333 251H324.283H319.264L319.283 256.019C319.377 281.394 321.74 301.758 326.513 314.492C333.031 331.894 336.333 349.996 336.333 368.316V418.134V423.134H341.333C352.685 423.134 361.933 432.381 361.933 443.734C361.933 446.048 361.461 448.325 360.654 450.587ZM157.134 230.4C157.134 237.863 163.203 243.933 170.667 243.933H196.267H315.733H341.333C348.807 243.933 354.866 237.86 354.866 230.4C354.866 222.94 348.807 216.867 341.333 216.867H307.2H204.8H170.667C163.203 216.867 157.134 222.937 157.134 230.4Z" fill="white" stroke="black" stroke-width="10"/>
<path d="M256 5C257.523 5 258.873 5.97498 259.354 7.416L259.354 7.41732C261.349 13.4108 265.301 20.2964 269.963 27.1728C274.009 33.1393 278.741 39.3174 283.554 45.2111L256 86.5422L228.446 45.2112C233.259 39.3171 237.99 33.1391 242.035 27.1728C246.696 20.2968 250.645 13.4133 252.644 7.42207C253.133 5.96729 254.486 5 256 5Z" fill="white" stroke="black" stroke-width="10"/>
</g>
<defs>
<clipPath id="clip0">
<rect width="512" height="512" fill="white"/>
</clipPath>
</defs>
</svg>
