<?xml version="1.0" encoding="iso-8859-1"?>
<!-- Generator: Adobe Illustrator 19.0.0, SVG Export Plug-In . SVG Version: 6.00 Build 0)  -->
<svg version="1.1" id="Capa_1" xmlns="http://www.w3.org/2000/svg" xmlns:xlink="http://www.w3.org/1999/xlink" x="0px" y="0px"
	 viewBox="0 0 512.009 512.009" style="enable-background:new 0 0 512.009 512.009;" xml:space="preserve">
<g>
	<g>
		<path d="M384.004,452.275h-256c-14.114,0-25.6,11.486-25.6,25.6v8.533c0,14.114,11.486,25.6,25.6,25.6h256
			c14.114,0,25.6-11.486,25.6-25.6v-8.533C409.604,463.761,398.118,452.275,384.004,452.275z M392.538,486.409
			c0,4.702-3.823,8.533-8.533,8.533h-256c-4.702,0-8.533-3.831-8.533-8.533v-8.533c0-4.702,3.831-8.533,8.533-8.533h256
			c4.71,0,8.533,3.831,8.533,8.533V486.409z"/>
	</g>
</g>
<g>
	<g>
		<path d="M341.338,418.142H170.671c-14.114,0-25.6,11.486-25.6,25.6s11.486,25.6,25.6,25.6h170.667c14.114,0,25.6-11.486,25.6-25.6
			S355.452,418.142,341.338,418.142z M341.338,452.275H170.671c-4.702,0-8.533-3.831-8.533-8.533c0-4.702,3.831-8.533,8.533-8.533
			h170.667c4.71,0,8.533,3.831,8.533,8.533C349.871,448.444,346.048,452.275,341.338,452.275z"/>
	</g>
</g>
<g>
	<g>
		<path d="M341.338,204.809H170.671c-14.114,0-25.6,11.486-25.6,25.6s11.486,25.6,25.6,25.6h170.667c14.114,0,25.6-11.486,25.6-25.6
			S355.452,204.809,341.338,204.809z M341.338,238.942H170.671c-4.702,0-8.533-3.831-8.533-8.533c0-4.702,3.831-8.533,8.533-8.533
			h170.667c4.71,0,8.533,3.831,8.533,8.533C349.871,235.11,346.048,238.942,341.338,238.942z"/>
	</g>
</g>
<g>
	<g>
		<path d="M307.204,170.675h-102.4c-4.71,0-8.533,3.823-8.533,8.533v34.133c0,4.71,3.823,8.533,8.533,8.533h102.4
			c4.71,0,8.533-3.823,8.533-8.533v-34.133C315.738,174.498,311.915,170.675,307.204,170.675z M298.671,204.809h-85.333
			c0,0,0-17.067,0-17.067h85.333V204.809z"/>
	</g>
</g>
<g>
	<g>
		<path d="M331.2,312.747c-4.531-12.083-6.929-32.179-6.929-58.121v-7.151c0-4.71-3.823-8.533-8.533-8.533H196.271
			c-4.71,0-8.533,3.823-8.533,8.533v7.151c0,25.941-2.389,46.037-6.921,58.121c-6.733,17.954-10.146,36.651-10.146,55.578v58.351
			c0,4.71,3.823,8.533,8.533,8.533h153.6c4.71,0,8.533-3.823,8.533-8.533v-58.351C341.338,349.397,337.933,330.701,331.2,312.747z
			 M324.271,418.142H187.738l0.009-49.818c0-16.879,3.055-33.562,9.062-49.587c5.222-13.943,7.919-35.046,8.004-62.729h102.4
			c0.077,27.682,2.773,48.785,8.004,62.729c6.007,16.026,9.054,32.708,9.054,49.587V418.142z"/>
	</g>
</g>
<g>
	<g>
		<path d="M313.246,70.776c-11.477-11.477-42.675-45.517-49.143-64.93c-1.169-3.49-4.42-5.837-8.098-5.837
			c-3.669,0-6.938,2.355-8.098,5.837c-6.468,19.413-37.658,53.453-49.135,64.93c-1.143,1.143-28.1,28.433-28.1,57.233
			s26.957,56.09,28.1,57.233c1.596,1.604,3.772,2.5,6.033,2.5h102.4c2.261,0,4.429-0.896,6.042-2.5
			c1.152-1.143,28.1-28.433,28.1-57.233S314.398,71.919,313.246,70.776z M303.475,170.675h-94.95
			c-5.854-6.596-20.787-25.139-20.787-42.667c0-21.7,22.878-44.945,23.1-45.167c1.468-1.459,29.764-29.901,45.167-55.1
			c15.403,25.199,43.708,53.641,45.167,55.1c0.521,0.538,23.1,23.612,23.1,45.167C324.271,145.536,309.338,164.079,303.475,170.675z
			"/>
	</g>
</g>
<g>
	<g>
		<path d="M296.128,52.335c-17.195-19.593-28.57-36.105-32.034-46.498C262.925,2.347,259.674,0,255.996,0
			c-3.669,0-6.938,2.355-8.098,5.837c-3.456,10.394-14.831,26.906-32.026,46.498c-2.5,2.85-2.816,7.014-0.785,10.214l33.715,52.975
			c1.57,2.458,4.284,3.951,7.202,3.951c2.918,0,5.632-1.493,7.194-3.951l33.715-52.975
			C298.953,59.349,298.628,55.185,296.128,52.335z M256.004,95.044l-23.1-36.301c9.907-11.622,17.63-21.965,23.1-30.933
			c5.478,8.969,13.193,19.311,23.108,30.933L256.004,95.044z"/>
	</g>
</g>
<g>
</g>
<g>
</g>
<g>
</g>
<g>
</g>
<g>
</g>
<g>
</g>
<g>
</g>
<g>
</g>
<g>
</g>
<g>
</g>
<g>
</g>
<g>
</g>
<g>
</g>
<g>
</g>
<g>
</g>
</svg>
