<svg width="514" height="514" viewBox="0 0 514 514" fill="none" xmlns="http://www.w3.org/2000/svg">
<g clip-path="url(#clip0)">
<path d="M323.539 459.073L322.178 459.521L321.877 460.922L313.412 500.292C312.145 506.178 306.948 510.386 300.929 510.4L214.234 510.599C208.215 510.613 202.999 506.429 201.705 500.549L193.06 461.218L192.752 459.818L191.389 459.376C181.027 456.018 170.918 451.853 161.178 446.929L159.898 446.282L158.693 447.061L124.857 468.923C124.857 468.923 124.857 468.923 124.857 468.924C119.799 472.19 113.147 471.489 108.883 467.245L47.4374 406.081L47.4367 406.08C43.1705 401.837 42.4415 395.188 45.6852 390.114C45.6853 390.114 45.6854 390.114 45.6855 390.114L67.3925 356.178L68.1653 354.97L67.5125 353.693C62.5445 343.975 58.3326 333.885 54.9271 323.539L54.479 322.178L53.0779 321.877L13.7068 313.412L13.7064 313.412C7.82253 312.148 3.614 306.949 3.60019 300.929L3.4013 214.234C3.38749 208.214 7.57212 202.996 13.4501 201.705L13.4505 201.705L52.7824 193.06L54.1821 192.752L54.6239 191.389C57.9819 181.027 62.1475 170.918 67.0708 161.178L67.7178 159.898L66.9395 158.693L45.0769 124.857C45.0768 124.857 45.0767 124.857 45.0766 124.857C41.8103 119.799 42.5112 113.147 46.7556 108.883L107.919 47.4374C112.164 43.1735 118.813 42.4421 123.886 45.6852C123.886 45.6853 123.886 45.6854 123.886 45.6855L157.822 67.3925L159.03 68.1653L160.307 67.5125C170.025 62.5445 180.115 58.3326 190.461 54.9271L191.822 54.479L192.123 53.0779L200.588 13.7077C201.855 7.8217 207.052 3.61399 213.071 3.60019L299.766 3.4013C305.785 3.38749 311 7.57088 312.295 13.4505C312.295 13.4508 312.296 13.4511 312.296 13.4514L320.94 52.7824L321.248 54.1821L322.611 54.6239C332.973 57.9819 343.082 62.1475 352.822 67.0708L354.102 67.7178L355.307 66.9395L389.143 45.0769C394.201 41.8102 400.854 42.5111 405.118 46.7556L466.563 107.92C470.827 112.164 471.558 118.813 468.315 123.886L446.608 157.822L445.835 159.03L446.488 160.307C451.456 170.025 455.668 180.115 459.073 190.461L459.521 191.822L460.922 192.123L500.293 200.588L500.294 200.588C506.178 201.852 510.386 207.051 510.4 213.071L510.599 299.766C510.613 305.786 506.428 311.004 500.55 312.295L500.55 312.295L461.218 320.94L459.818 321.248L459.376 322.611C456.018 332.973 451.853 343.082 446.929 352.822L446.282 354.102L447.061 355.307L468.923 389.143C468.923 389.143 468.923 389.143 468.924 389.144C472.19 394.202 471.489 400.854 467.245 405.118L406.081 466.563C401.836 470.827 395.188 471.558 390.114 468.315C390.114 468.315 390.114 468.315 390.114 468.315L356.178 446.608L354.97 445.835L353.693 446.488C343.975 451.456 333.885 455.668 323.539 459.073ZM162.707 257.216C162.827 309.21 205.223 351.412 257.216 351.293C309.21 351.174 351.412 308.778 351.293 256.784C351.174 204.79 308.778 162.588 256.784 162.707C204.79 162.827 162.588 205.223 162.707 257.216Z" fill="white" stroke="black" stroke-width="5"/>
</g>
<defs>
<clipPath id="clip0">
<rect x="512.412" y="0.413452" width="512" height="512" transform="rotate(89.8686 512.412 0.413452)" fill="white"/>
</clipPath>
</defs>
</svg>
