<?xml version="1.0" encoding="iso-8859-1"?>
<!-- Generator: Adobe Illustrator 19.0.0, SVG Export Plug-In . SVG Version: 6.00 Build 0)  -->
<svg version="1.1" id="Capa_1" xmlns="http://www.w3.org/2000/svg" xmlns:xlink="http://www.w3.org/1999/xlink" x="0px" y="0px"
	 viewBox="0 0 512 512" style="enable-background:new 0 0 512 512;" xml:space="preserve">
<g>
	<g>
		<g>
			<path d="M185.379,167.724h141.241c4.875,0,8.828-3.952,8.828-8.828c0-4.875-3.952-8.828-8.828-8.828H185.379
				c-4.873,0.005-8.823,3.954-8.828,8.828C176.557,163.77,180.506,167.719,185.379,167.724z"/>
			<path d="M210.422,132.414h91.155l15.578-36.065v-0.004c0.9-2.026,0.843-4.349-0.155-6.328c-1.365-2.591-3.792-4.457-6.647-5.112
				L256,70.909l-54.353,13.996c-2.854,0.655-5.281,2.521-6.647,5.112c-0.999,1.979-1.056,4.302-0.155,6.328L210.422,132.414z"/>
			<rect x="211.862" y="185.379" width="88.276" height="150.069"/>
			<path d="M185.379,370.759h141.241c4.875,0,8.828-3.952,8.828-8.828c0-4.875-3.952-8.828-8.828-8.828H185.379
				c-4.875,0-8.828,3.952-8.828,8.828C176.552,366.806,180.504,370.759,185.379,370.759z"/>
			<path d="M397.241,459.034h-17.626l-0.029,0.004l-0.022-0.004H132.436l-0.022,0.004l-0.029-0.004h-17.626
				c-4.873,0.005-8.823,3.954-8.828,8.828v35.31c0.005,4.873,3.954,8.823,8.828,8.828h8.828v-17.655
				c0-4.875,3.952-8.828,8.828-8.828c4.875,0,8.828,3.952,8.828,8.828V512h17.655v-17.655c0-4.875,3.952-8.828,8.828-8.828
				c4.875,0,8.828,3.952,8.828,8.828V512h17.655v-17.655c0-4.875,3.952-8.828,8.828-8.828c4.875,0,8.828,3.952,8.828,8.828V512
				h17.655v-17.655c0-4.875,3.952-8.828,8.828-8.828c4.875,0,8.828,3.952,8.828,8.828V512h17.655v-17.655
				c0-4.875,3.952-8.828,8.828-8.828c4.875,0,8.828,3.952,8.828,8.828V512h17.655v-17.655c0-4.875,3.952-8.828,8.828-8.828
				c4.875,0,8.828,3.952,8.828,8.828V512h17.655v-17.655c0-4.875,3.952-8.828,8.828-8.828c4.875,0,8.828,3.952,8.828,8.828V512
				h17.655v-17.655c0-4.875,3.952-8.828,8.828-8.828c4.875,0,8.828,3.952,8.828,8.828V512h8.828
				c4.873-0.005,8.823-3.954,8.828-8.828v-35.31C406.064,462.989,402.115,459.039,397.241,459.034z"/>
			<path d="M138.393,441.379h235.213l5.385-13.461c1.763-4.41,1.675-9.344-0.244-13.688c-1.919-4.344-5.507-7.732-9.954-9.398
				l-43.782-16.418H186.989l-43.782,16.418c-4.447,1.667-8.035,5.054-9.954,9.398c-1.919,4.344-2.007,9.278-0.244,13.688
				L138.393,441.379z"/>
			<path d="M238.345,35.31h8.828v28.248L256,61.793l8.828,1.766V35.31h8.828c4.875,0,8.828-3.952,8.828-8.828
				c0-4.875-3.952-8.828-8.828-8.828h-8.828V8.828C264.828,3.952,260.875,0,256,0c-4.875,0-8.828,3.952-8.828,8.828v8.828h-8.828
				c-4.875,0-8.828,3.952-8.828,8.828C229.517,31.358,233.469,35.31,238.345,35.31z"/>
		</g>
	</g>
</g>
<g>
</g>
<g>
</g>
<g>
</g>
<g>
</g>
<g>
</g>
<g>
</g>
<g>
</g>
<g>
</g>
<g>
</g>
<g>
</g>
<g>
</g>
<g>
</g>
<g>
</g>
<g>
</g>
<g>
</g>
</svg>
