<?xml version="1.0" encoding="iso-8859-1"?>
<!-- Generator: Adobe Illustrator 19.0.0, SVG Export Plug-In . SVG Version: 6.00 Build 0)  -->
<svg version="1.1" id="Capa_1" xmlns="http://www.w3.org/2000/svg" xmlns:xlink="http://www.w3.org/1999/xlink" x="0px" y="0px"
	 viewBox="0 0 512 512" style="enable-background:new 0 0 512 512;" xml:space="preserve">
<g>
	<g>
		<path d="M392.533,426.667h-4.46l2.668-6.671c3.408-8.526,3.239-18.065-0.469-26.464c-3.708-8.399-10.643-14.952-19.239-18.178
			l-26.556-9.958c3.471-4.434,5.367-9.898,5.389-15.529c-0.015-14.132-11.468-25.585-25.6-25.6h-8.533V179.2h8.533
			c14.138,0,25.6-11.461,25.6-25.6c0-14.139-11.461-25.6-25.6-25.6h-5.619l12.136-28.096c2.831-6.542,2.652-13.997-0.492-20.396
			c-3.509-6.99-9.905-12.092-17.5-13.958l-48.258-12.429V34.133h8.533c4.713,0,8.533-3.821,8.533-8.533s-3.82-8.533-8.533-8.533
			h-8.533V8.533C264.533,3.82,260.713,0,256,0c-4.713,0-8.533,3.82-8.533,8.533v8.533h-8.533c-4.713,0-8.533,3.82-8.533,8.533
			s3.82,8.533,8.533,8.533h8.533v18.988L199.208,65.55c-7.595,1.867-13.991,6.968-17.5,13.958
			c-3.143,6.398-3.323,13.853-0.492,20.396L193.353,128h-5.619c-14.138,0-25.6,11.461-25.6,25.6c0,14.138,11.462,25.6,25.6,25.6
			h8.533v145.067h-8.533c-14.132,0.015-25.585,11.468-25.6,25.6c0.022,5.631,1.918,11.095,5.389,15.529l-26.556,9.958
			c-8.596,3.226-15.531,9.778-19.239,18.178c-3.708,8.399-3.877,17.938-0.469,26.464l2.668,6.671h-4.46
			c-14.132,0.015-25.585,11.468-25.6,25.6V486.4c0.015,14.132,11.468,25.585,25.6,25.6h273.067
			c14.132-0.015,25.585-11.468,25.6-25.6v-34.133C418.118,438.135,406.665,426.682,392.533,426.667z M197.033,87.017
			c1.32-2.504,3.666-4.309,6.425-4.942L256,68.546l52.542,13.529c2.759,0.633,5.105,2.437,6.425,4.942
			c0.965,1.913,1.02,4.159,0.15,6.117v0.004L300.058,128h-88.117l-15.058-34.867C196.013,91.175,196.068,88.93,197.033,87.017z
			 M187.733,162.133c-4.711-0.005-8.529-3.823-8.533-8.533c0.005-4.711,3.822-8.529,8.533-8.533h136.533
			c4.713,0,8.533,3.821,8.533,8.533c0,4.713-3.82,8.533-8.533,8.533H187.733z M298.667,179.2v145.067h-85.333V179.2H298.667z
			 M187.733,341.333h136.533c4.713,0,8.533,3.82,8.533,8.533s-3.82,8.533-8.533,8.533H187.733c-4.713,0-8.533-3.82-8.533-8.533
			S183.021,341.333,187.733,341.333z M137.344,400.423c1.855-4.199,5.323-7.474,9.622-9.085l42.322-15.871h133.422l42.322,15.871
			c4.299,1.611,7.767,4.886,9.622,9.085s1.94,8.969,0.236,13.231l-5.205,13.013H142.314l-5.205-13.012
			C135.404,409.391,135.49,404.622,137.344,400.423z M401.067,486.4c-0.005,4.711-3.822,8.529-8.533,8.533H384v-17.067
			c0-4.713-3.82-8.533-8.533-8.533s-8.533,3.82-8.533,8.533v17.067h-17.067v-17.067c0-4.713-3.82-8.533-8.533-8.533
			s-8.533,3.82-8.533,8.533v17.067h-17.067v-17.067c0-4.713-3.82-8.533-8.533-8.533s-8.533,3.82-8.533,8.533v17.067H281.6v-17.067
			c0-4.713-3.82-8.533-8.533-8.533s-8.533,3.82-8.533,8.533v17.067h-17.067v-17.067c0-4.713-3.82-8.533-8.533-8.533
			s-8.533,3.82-8.533,8.533v17.067h-17.067v-17.067c0-4.713-3.82-8.533-8.533-8.533s-8.533,3.82-8.533,8.533v17.067H179.2v-17.067
			c0-4.713-3.82-8.533-8.533-8.533c-4.713,0-8.533,3.82-8.533,8.533v17.067h-17.067v-17.067c0-4.713-3.82-8.533-8.533-8.533
			s-8.533,3.82-8.533,8.533v17.067h-8.533c-4.711-0.005-8.529-3.822-8.533-8.533v-34.133c0.005-4.711,3.822-8.529,8.533-8.533
			h17.039l0.028,0.004l0.021-0.004h238.891l0.021,0.004l0.028-0.004h17.039c4.711,0.005,8.529,3.823,8.533,8.533V486.4z"/>
	</g>
</g>
<g>
</g>
<g>
</g>
<g>
</g>
<g>
</g>
<g>
</g>
<g>
</g>
<g>
</g>
<g>
</g>
<g>
</g>
<g>
</g>
<g>
</g>
<g>
</g>
<g>
</g>
<g>
</g>
<g>
</g>
</svg>
