<svg width="512" height="512" viewBox="0 0 512 512" fill="none" xmlns="http://www.w3.org/2000/svg">
<path d="M326.62 162.724H185.382C183.27 162.721 181.557 161.01 181.551 158.895C181.556 156.783 183.269 155.071 185.382 155.068H326.62C328.734 155.068 330.448 156.782 330.448 158.896C330.448 161.01 328.734 162.724 326.62 162.724Z" fill="white" stroke="black" stroke-width="10"/>
<path d="M312.586 94.3151L312.155 95.2844V95.3153L298.29 127.414H213.709L199.435 94.3626L199.425 94.3379L199.414 94.3133C199.128 93.6708 199.14 92.9365 199.446 92.3055C200.137 91.0252 201.346 90.1041 202.765 89.7783L202.83 89.7635L202.894 89.747L256 76.0721L309.106 89.747L309.17 89.7636L309.235 89.7784C310.655 90.1043 311.863 91.0253 312.553 92.304C312.859 92.9359 312.871 93.6717 312.586 94.3151Z" fill="white" stroke="black" stroke-width="10"/>
<path d="M216.862 190.379H295.138V330.448H216.862V190.379Z" fill="white" stroke="black" stroke-width="10"/>
<path d="M185.379 365.759H326.62C328.734 365.759 330.448 364.045 330.448 361.931C330.448 359.817 328.734 358.103 326.62 358.103H185.379C183.265 358.103 181.552 359.816 181.551 361.93L185.379 365.759ZM185.379 365.759C183.267 365.759 181.552 364.046 181.551 361.931L185.379 365.759Z" fill="white" stroke="black" stroke-width="10"/>
<path d="M397.243 507L393.42 507V494.345C393.42 486.707 387.228 480.517 379.592 480.517C371.954 480.517 365.764 486.709 365.764 494.345V507H358.109V494.345C358.109 486.707 351.917 480.517 344.281 480.517C336.643 480.517 330.453 486.709 330.453 494.345V507H322.798V494.345C322.798 486.707 316.606 480.517 308.97 480.517C301.332 480.517 295.142 486.709 295.142 494.345V507H287.487V494.345C287.487 486.707 281.295 480.517 273.659 480.517C266.021 480.517 259.831 486.709 259.831 494.345V507H252.176V494.345C252.176 486.707 245.984 480.517 238.348 480.517C230.71 480.517 224.52 486.709 224.52 494.345V507H216.865V494.345C216.865 486.707 210.673 480.517 203.037 480.517C195.399 480.517 189.209 486.709 189.209 494.345V507H181.554V494.345C181.554 486.707 175.362 480.517 167.726 480.517C160.088 480.517 153.898 486.709 153.898 494.345V507H146.243V494.345C146.243 486.707 140.051 480.517 132.415 480.517C124.777 480.517 118.587 486.709 118.587 494.345V507L114.764 507C114.763 507 114.762 507 114.761 507C112.647 506.996 110.934 505.283 110.931 503.169V467.865C110.934 465.75 112.648 464.037 114.762 464.034H132.042L132.522 464.1L132.887 464.034H379.113L379.478 464.1L379.958 464.034H397.238C399.352 464.037 401.071 465.752 401.076 467.874V503.167C401.074 505.282 399.36 506.996 397.246 507C397.245 507 397.244 507 397.243 507Z" fill="white" stroke="black" stroke-width="10"/>
<path d="M367.037 409.514L367.039 409.514C370.226 410.708 372.798 413.136 374.173 416.25C375.549 419.364 375.612 422.901 374.348 426.062L370.221 436.379H141.778L137.652 426.062C137.652 426.062 137.652 426.061 137.651 426.061C136.388 422.9 136.451 419.364 137.827 416.25C139.202 413.137 141.774 410.709 144.962 409.514L144.963 409.514L187.896 393.414H324.104L367.037 409.514Z" fill="white" stroke="black" stroke-width="10"/>
<path d="M252.173 30.31V35.31V57.4593L255.02 56.8901L256 56.694L256.981 56.8901L259.828 57.4597V35.31V30.31H264.828H273.656C275.77 30.31 277.484 28.5962 277.484 26.482C277.484 24.3681 275.77 22.654 273.656 22.654H264.828H259.828V17.654V8.828C259.828 6.71379 258.114 5 256 5C253.886 5 252.172 6.71379 252.172 8.828V17.656V22.656H247.172H238.344C236.23 22.656 234.517 24.3692 234.516 26.483L252.173 30.31ZM252.173 30.31H247.173M252.173 30.31H247.173M247.173 30.31H238.345M247.173 30.31H238.345M238.345 30.31C236.23 30.31 234.517 28.5964 234.516 26.484L238.345 30.31Z" fill="white" stroke="black" stroke-width="10"/>
</svg>
