<svg width="512" height="512" viewBox="0 0 512 512" fill="none" xmlns="http://www.w3.org/2000/svg">
<path d="M185.379 167.724H326.62C331.495 167.724 335.448 163.772 335.448 158.896C335.448 154.021 331.496 150.068 326.62 150.068H185.379C180.506 150.073 176.556 154.022 176.551 158.896C176.557 163.77 180.506 167.719 185.379 167.724Z" fill="white"/>
<path d="M210.422 132.414H301.577L317.155 96.349V96.345C318.055 94.319 317.998 91.996 317 90.017C315.635 87.426 313.208 85.56 310.353 84.905L256 70.909L201.647 84.905C198.793 85.56 196.366 87.426 195 90.017C194.001 91.996 193.944 94.319 194.845 96.345L210.422 132.414Z" fill="white"/>
<path d="M300.138 185.379H211.862V335.448H300.138V185.379Z" fill="white"/>
<path d="M185.379 370.759H326.62C331.495 370.759 335.448 366.807 335.448 361.931C335.448 357.056 331.496 353.103 326.62 353.103H185.379C180.504 353.103 176.551 357.055 176.551 361.931C176.552 366.806 180.504 370.759 185.379 370.759Z" fill="white"/>
<path d="M397.241 459.034H379.615L379.586 459.038L379.564 459.034H132.436L132.414 459.038L132.385 459.034H114.759C109.886 459.039 105.936 462.988 105.931 467.862V503.172C105.936 508.045 109.885 511.995 114.759 512H123.587V494.345C123.587 489.47 127.539 485.517 132.415 485.517C137.29 485.517 141.243 489.469 141.243 494.345V512H158.898V494.345C158.898 489.47 162.85 485.517 167.726 485.517C172.601 485.517 176.554 489.469 176.554 494.345V512H194.209V494.345C194.209 489.47 198.161 485.517 203.037 485.517C207.912 485.517 211.865 489.469 211.865 494.345V512H229.52V494.345C229.52 489.47 233.472 485.517 238.348 485.517C243.223 485.517 247.176 489.469 247.176 494.345V512H264.831V494.345C264.831 489.47 268.783 485.517 273.659 485.517C278.534 485.517 282.487 489.469 282.487 494.345V512H300.142V494.345C300.142 489.47 304.094 485.517 308.97 485.517C313.845 485.517 317.798 489.469 317.798 494.345V512H335.453V494.345C335.453 489.47 339.405 485.517 344.281 485.517C349.156 485.517 353.109 489.469 353.109 494.345V512H370.764V494.345C370.764 489.47 374.716 485.517 379.592 485.517C384.467 485.517 388.42 489.469 388.42 494.345V512H397.248C402.121 511.995 406.071 508.046 406.076 503.172V467.862C406.064 462.989 402.115 459.039 397.241 459.034Z" fill="white"/>
<path d="M138.393 441.379H373.606L378.991 427.918C380.754 423.508 380.666 418.574 378.747 414.23C376.828 409.886 373.24 406.498 368.793 404.832L325.011 388.414H186.989L143.207 404.832C138.76 406.499 135.172 409.886 133.253 414.23C131.334 418.574 131.246 423.508 133.009 427.918L138.393 441.379Z" fill="white"/>
<path d="M238.345 35.31H247.173V63.558L256 61.793L264.828 63.559V35.31H273.656C278.531 35.31 282.484 31.358 282.484 26.482C282.484 21.607 278.532 17.654 273.656 17.654H264.828V8.828C264.828 3.952 260.875 0 256 0C251.125 0 247.172 3.952 247.172 8.828V17.656H238.344C233.469 17.656 229.516 21.608 229.516 26.484C229.517 31.358 233.469 35.31 238.345 35.31Z" fill="white"/>
</svg>
