<svg width="512" height="512" viewBox="0 0 512 512" fill="none" xmlns="http://www.w3.org/2000/svg">
<g clip-path="url(#clip0)">
<path d="M436.119 166.425L436.124 166.428C444.119 172.694 445.289 183.942 438.782 191.648C432.21 199.407 425.64 207.291 419.084 215.157L419.079 215.164L419.077 215.166C409.953 226.126 394.281 229.186 381.509 222.566L381.507 222.565C375.164 219.281 369.138 216.139 363.741 212.541L363.694 212.509L363.645 212.478C352.216 205.231 339.261 203.829 326.729 206.708L326.656 206.725L326.584 206.743C308.69 211.42 293.112 206.895 278.111 195.429C276.506 194.126 274.925 192.855 273.355 191.593L273.349 191.588C271.756 190.307 270.173 189.035 268.567 187.731L261.46 194.671L313.396 261.871L313.396 261.871C319.279 269.482 326.082 276.455 333.545 282.566L333.65 282.658C333.76 282.754 333.925 282.899 334.14 283.089C334.571 283.468 335.204 284.027 336.008 284.743C337.616 286.174 339.909 288.228 342.64 290.717C348.107 295.698 355.308 302.399 362.281 309.309C368.387 315.36 370.997 322.557 372.066 328.386C372.599 331.293 372.737 333.807 372.743 335.573C372.746 336.454 372.716 337.141 372.688 337.588C372.674 337.812 372.66 337.975 372.651 338.072C372.647 338.12 372.644 338.152 372.642 338.166L372.642 338.169L372.641 338.175L372.608 338.452V338.749V378.997H100.976V323.997V323.993V323.99V323.986V323.982V323.978V323.974V323.971V323.967V323.963V323.959V323.956V323.952V323.948V323.944V323.941V323.937V323.933V323.929V323.926V323.922V323.918V323.914V323.911V323.907V323.903V323.899V323.895V323.892V323.888V323.884V323.88V323.876V323.873V323.869V323.865V323.861V323.858V323.854V323.85V323.846V323.842V323.839V323.835V323.831V323.827V323.823V323.819V323.816V323.812V323.808V323.804V323.8V323.797V323.793V323.789V323.785V323.781V323.777V323.774V323.77V323.766V323.762V323.758V323.754V323.75V323.747V323.743V323.739V323.735V323.731V323.727V323.723V323.72V323.716V323.712V323.708V323.704V323.7V323.696V323.692V323.688V323.685V323.681V323.677V323.673V323.669V323.665V323.661V323.657V323.653V323.649V323.645V323.641V323.638V323.634V323.63V323.626V323.622V323.618V323.614V323.61V323.606V323.602V323.598V323.594V323.59V323.586V323.582V323.578V323.574V323.57V323.566V323.562V323.558V323.554V323.55V323.546V323.542V323.538V323.534V323.53V323.526V323.522V323.518V323.514V323.51V323.506V323.501V323.497V323.493V323.489V323.485V323.481V323.477V323.473V323.469V323.465V323.461V323.457V323.452V323.448V323.444V323.44V323.436V323.432V323.428V323.423V323.419V323.415V323.411V323.407V323.403V323.398V323.394V323.39V323.386V323.382V323.378V323.373V323.369V323.365V323.361V323.356V323.352V323.348V323.344V323.339V323.335V323.331V323.327V323.322V323.318V323.314V323.31V323.305V323.301V323.297V323.292V323.288V323.284V323.279V323.275V323.271V323.266V323.262V323.258V323.253V323.249V323.245V323.24V323.236V323.231V323.227V323.223V323.218V323.214V323.209V323.205V323.201V323.196V323.192V323.187V323.183V323.178V323.174V323.169V323.165V323.16V323.156V323.151V323.147V323.142V323.138V323.133V323.129V323.124V323.12V323.115V323.111V323.106V323.101V323.097V323.092V323.088V323.083V323.078V323.074V323.069V323.065V323.06V323.055V323.051V323.046V323.041V323.037V323.032V323.027V323.023V323.018V323.013V323.009V323.004V322.999V322.994V322.99V322.985V322.98V322.975V322.971V322.966V322.961V322.956V322.951V322.947V322.942V322.937V322.932V322.927V322.922V322.918V322.913V322.908V322.903V322.898V322.893V322.888V322.883V322.879V322.874V322.869V322.864V322.859V322.854V322.849V322.844V322.839V322.834V322.829V322.824V322.819V322.814V322.809V322.804V322.799V322.794V322.789V322.784V322.778V322.773V322.768V322.763V322.758V322.753V322.748V322.743V322.737V322.732V322.727V322.722V322.717V322.712V322.706V322.701V322.696V322.691V322.685V322.68V322.675V322.67V322.664V322.659V322.654V322.648V322.643V322.638V322.632V322.627V322.622V322.616V322.611V322.606V322.6V322.595V322.589V322.584V322.579V322.573V322.568V322.562V322.557V322.551V322.546V322.54V322.535V322.529V322.524V322.518V322.513V322.507V322.502V322.496V322.49V322.485V322.479V322.474V322.468V322.462V322.457V322.451V322.445V322.44V322.434V322.428V322.423V322.417V322.411V322.405V322.4V322.394V322.388V322.382V322.377V322.371V322.365V322.359V322.353V322.348V322.342V322.336V322.33V322.324V322.318V322.312V322.306V322.3V322.294V322.288V322.283V322.277V322.271V322.265V322.259V322.253V322.246V322.24V322.234V322.228V322.222V322.216V322.21V322.204V322.198V322.192V322.186V322.179V322.173V322.167V322.161V322.155V322.148V322.142V322.136V322.13V322.124V322.117V322.111V322.105V322.098V322.092V322.086V322.079V322.073V322.067V322.06V322.054V322.047V322.041V322.035V322.028V322.022V322.015V322.009V322.002V321.996V321.989V321.983V321.976V321.97V321.963V321.957V321.95V321.943V321.937V321.93V321.924V321.917V321.91V321.904V321.897V321.89V321.884V321.877V321.87V321.863V321.857V321.85V321.843V321.836V321.829V321.823V321.816V321.809V321.802V321.795V321.788V321.781V321.774V321.767V321.761V321.754V321.747V321.74V321.733V321.726V321.719V321.712V321.704V321.697V321.69V321.683V321.676V321.669V321.662V321.655V321.648V321.64V321.633V321.626V321.619V321.612V321.604V321.597V321.59V321.583V321.575V321.568V321.561V321.553V321.546V321.539V321.531V321.524V321.516V321.509V321.502V321.494V321.487V321.479V321.472V321.464V321.457V321.449V321.448C101.254 312.11 101.304 303.059 101.355 294.086C101.428 280.973 101.5 268.026 102.28 254.59L102.282 254.543L102.284 254.496C103.427 225.167 106.661 196.419 113.573 167.761L113.576 167.747L113.579 167.733C119.917 140.756 127.903 114.487 143.949 92.0232L143.966 91.9994L143.982 91.9755C158.863 70.6201 175.252 56.7546 201.444 57.9518L201.475 57.9532L201.505 57.9542C211.759 58.296 221.313 56.5801 229.701 51.9196C238.111 47.246 244.958 39.8274 250.131 29.4281C256.381 17.3808 267.21 9.69749 280.894 5.5146L280.897 5.51345C282.078 5.15146 282.92 5.02213 283.469 5.00268C283.476 5.22003 283.469 5.5051 283.433 5.86819C281.455 18.3222 282.84 29.5958 287.33 39.7166C291.815 49.8279 299.267 58.4923 308.968 65.9578C326.915 80.108 344.794 94.2654 362.676 108.426C387.088 127.757 411.507 147.094 436.119 166.425Z" fill="white" stroke="black" stroke-width="10"/>
<path d="M409.839 491.096L409.846 491.109C411.561 494.516 411.383 498.551 409.396 501.769C407.355 505.024 403.799 506.997 400.008 506.997H80.008C76.229 506.997 72.6734 505.003 70.6594 501.749C68.6537 498.509 68.4635 494.468 70.1704 491.077L70.1762 491.065L102.171 427.076C102.172 427.074 102.172 427.073 102.173 427.071C104.048 423.347 107.859 420.997 112.008 420.997H368.008C372.155 420.997 375.964 423.345 377.84 427.065C377.842 427.069 377.843 427.072 377.845 427.076L409.839 491.096Z" fill="white" stroke="black" stroke-width="10"/>
</g>
<defs>
<clipPath id="clip0">
<rect width="511.997" height="511.997" fill="white"/>
</clipPath>
</defs>
</svg>
