<svg width="512" height="512" viewBox="0 0 512 512" fill="none" xmlns="http://www.w3.org/2000/svg">
<g clip-path="url(#clip0)">
<path d="M439.208 162.493C396.552 128.989 354.536 95.517 312.04 62.013C293.608 47.837 284.648 29.821 288.392 6.525C289.032 0.733003 285.8 -1.219 279.432 0.733003C264.776 5.213 252.68 13.629 245.672 27.165C236.072 46.493 220.872 53.597 201.672 52.957C172.968 51.645 155.176 67.165 139.88 89.117C123.24 112.413 115.08 139.485 108.712 166.589C101.704 195.645 98.44 224.733 97.288 254.301C95.976 276.925 96.648 298.877 95.976 321.373C95.976 322.685 95.976 323.357 95.976 323.997V383.997H377.608V338.749C377.608 338.749 379.88 319.709 365.8 305.757C351.72 291.805 336.776 278.749 336.776 278.749C329.576 272.861 323.016 266.141 317.352 258.813L265.416 191.613C268.648 194.237 271.784 196.733 275.016 199.357C290.984 211.581 308.136 216.733 327.848 211.581C339.272 208.957 350.824 210.269 360.968 216.701C366.632 220.477 372.904 223.741 379.208 227.005C394.024 234.685 412.264 231.165 422.92 218.365C429.48 210.493 436.04 202.621 442.6 194.877C450.952 184.989 449.416 170.493 439.208 162.493Z" fill="white"/>
<path d="M414.312 488.861L382.312 424.829C379.592 419.421 374.056 415.997 368.008 415.997H112.008C105.96 415.997 100.424 419.421 97.704 424.829L65.704 488.829C63.208 493.789 63.496 499.677 66.408 504.381C69.32 509.085 74.472 511.997 80.008 511.997H400.008C405.544 511.997 410.696 509.117 413.64 504.413C416.552 499.709 416.808 493.821 414.312 488.861Z" fill="white"/>
</g>
<defs>
<clipPath id="clip0">
<rect width="511.997" height="511.997" fill="white"/>
</clipPath>
</defs>
</svg>
