<svg width="512" height="512" viewBox="0 0 512 512" fill="none" xmlns="http://www.w3.org/2000/svg">
<g clip-path="url(#clip0)">
<path d="M165 96C165 45.8334 205.833 5 256 5C306.167 5 347 45.8334 347 96C347 146.167 306.167 187 256 187C205.833 187 165 146.167 165 96ZM229 96C229 81.1184 241.118 69 256 69C264.649 69 271.667 61.984 271.667 53.334C271.667 44.6846 264.649 37.667 256 37.667C223.819 37.667 197.667 63.8429 197.667 96C197.667 104.649 204.683 111.667 213.333 111.667C221.982 111.667 229 104.649 229 96Z" fill="white" stroke="black" stroke-width="10"/>
<path d="M307.729 158.877L307.727 158.877C304.805 158.261 301.793 160.125 301.057 163.114C301.057 163.125 301.058 163.137 301.058 163.151C301.061 163.233 301.065 163.3 301.071 163.405C301.074 163.46 301.078 163.524 301.082 163.606C301.093 163.808 301.107 164.096 301.107 164.416V169.416H296.107H215.894H210.894V164.416C210.894 164.074 210.911 163.768 210.924 163.561C210.93 163.469 210.935 163.4 210.938 163.344C210.944 163.259 210.947 163.203 210.951 163.141C210.23 160.154 207.237 158.271 204.26 158.88C173.011 165.44 166.449 177.019 165.556 178.903C165.182 179.718 165.001 180.535 165.001 181.333V202.666C165.001 204.124 165.567 205.531 166.577 206.588L307.729 158.877ZM307.729 158.877C338.965 165.437 345.551 177.016 346.444 178.902M307.729 158.877L346.444 178.902M346.444 178.902C346.819 179.719 347 180.538 347.001 181.336V202.666C347.001 204.126 346.435 205.533 345.425 206.589C344.06 208.014 322.293 229.666 256.001 229.666C189.71 229.666 167.942 208.014 166.577 206.588L346.444 178.902ZM210.954 163.022C210.954 163.022 210.954 163.025 210.954 163.03C210.954 163.025 210.954 163.022 210.954 163.022Z" fill="white" stroke="black" stroke-width="10"/>
<path d="M367.361 412.843L367.377 412.868L367.394 412.893C368.99 415.305 368.518 418.505 366.273 420.353L366.263 420.361L366.253 420.369C364.426 421.889 337.465 443 256 443C174.543 443 147.569 421.893 145.731 420.377L145.727 420.374C143.485 418.528 143.008 415.307 144.606 412.893L144.624 412.866L144.641 412.839C144.634 412.851 144.752 412.668 144.877 412.474C145.017 412.256 145.214 411.948 145.463 411.554C145.961 410.767 146.668 409.636 147.554 408.187C149.326 405.289 151.814 401.113 154.778 395.851C160.702 385.331 168.539 370.45 176.358 352.733C191.952 317.396 207.666 270.358 207.666 224C207.666 220.873 210.206 218.333 213.333 218.333C216.46 218.333 219 220.873 219 224V229H224H288H293V224C293 220.873 295.54 218.333 298.667 218.333C301.794 218.333 304.334 220.873 304.334 224C304.334 270.442 320.047 317.481 335.642 352.798C343.461 370.505 351.298 385.371 357.223 395.878C360.187 401.133 362.675 405.303 364.447 408.197C365.333 409.644 366.04 410.773 366.539 411.559C366.788 411.952 366.985 412.26 367.125 412.478C367.179 412.562 367.233 412.645 367.275 412.711C367.328 412.793 367.364 412.847 367.361 412.843Z" fill="white" stroke="black" stroke-width="10"/>
<path d="M305.541 389.278L305.533 389.26L301.949 381.623L301.946 381.617L301.943 381.61C301.013 379.614 299.002 378.334 296.811 378.334H215.19C212.999 378.334 210.988 379.614 210.058 381.611L210.052 381.623L210.052 381.623L206.468 389.26L206.46 389.278L206.451 389.297C205.66 390.947 205.7 392.858 206.548 394.452L206.554 394.463L206.554 394.463C207.38 396.026 208.941 397.135 210.746 397.399L305.541 389.278ZM305.541 389.278L305.55 389.297M305.541 389.278L305.55 389.297M305.55 389.297C306.341 390.947 306.301 392.857 305.452 394.451L305.449 394.458L305.445 394.464C304.609 396.046 303.045 397.15 301.284 397.395L301.269 397.397M305.55 389.297L301.269 397.397M301.269 397.397L301.254 397.399M301.269 397.397L301.254 397.399M301.254 397.399C287.885 399.342 272.643 400.334 256 400.334C239.358 400.334 224.116 399.342 210.748 397.399L301.254 397.399Z" fill="white" stroke="black" stroke-width="10"/>
<path d="M410.836 418.852L410.828 418.994L410.829 419.137L411 458.667C411 458.669 411 458.671 411 458.674C410.999 459.84 410.634 460.989 409.968 461.937L409.963 461.944C409.679 462.348 378.055 507 256 507C133.945 507 102.321 462.348 102.037 461.944L102.033 461.938C101.365 460.987 101 459.834 101 458.667V416C101 415.518 101.102 414.8 101.243 414.323L101.347 413.973L101.398 413.612C101.618 412.066 102.297 411.047 103.153 410.399C104.03 409.734 105.404 409.232 107.335 409.34C109.935 409.574 112.458 412.264 112.419 415.623L112.419 415.625C112.296 426.847 117.153 437.373 125.745 444.487C132.578 450.179 167.168 474.334 255.998 474.334C344.833 474.334 379.425 450.176 386.278 444.463C394.846 437.35 399.703 426.826 399.58 415.604L399.58 415.602C399.546 412.638 401.822 410.141 404.815 409.914L404.846 409.911L404.876 409.909C407.659 409.663 410.332 411.691 410.836 414.636L410.917 415.696C410.93 416.699 410.895 417.737 410.836 418.852Z" fill="white" stroke="black" stroke-width="10"/>
</g>
<defs>
<clipPath id="clip0">
<rect width="512" height="512" fill="white"/>
</clipPath>
</defs>
</svg>
