<svg width="512" height="512" viewBox="0 0 512 512" fill="none" xmlns="http://www.w3.org/2000/svg">
<g clip-path="url(#clip0)">
<path d="M256 0C203.072 0 160 43.072 160 96C160 148.928 203.072 192 256 192C308.928 192 352 148.928 352 96C352 43.072 308.928 0 256 0ZM256 64C238.357 64 224 78.357 224 96C224 101.888 219.221 106.667 213.333 106.667C207.445 106.667 202.667 101.888 202.667 96C202.667 66.603 226.582 42.667 256 42.667C261.888 42.667 266.667 47.446 266.667 53.334C266.667 59.222 261.888 64 256 64Z" fill="white"/>
<path d="M350.976 176.789C349.269 173.162 341.163 160.789 308.757 153.984C303.082 152.789 297.365 156.459 296.128 162.24C295.979 162.987 296.107 163.691 296.107 164.416H215.894C215.894 163.691 216.043 162.965 215.873 162.24C214.636 156.459 208.94 152.811 203.244 153.984C170.817 160.789 162.732 173.163 161.025 176.789C160.364 178.218 160.001 179.754 160.001 181.333V202.666C160.001 205.418 161.068 208.063 162.966 210.047C165.377 212.564 188.502 234.666 256.001 234.666C323.5 234.666 346.625 212.565 349.036 210.047C350.935 208.063 352.001 205.418 352.001 202.666V181.333C352 179.755 351.637 178.219 350.976 176.789Z" fill="white"/>
<path d="M371.563 410.133C370.944 409.173 309.334 314.858 309.334 224C309.334 218.112 304.555 213.333 298.667 213.333C292.779 213.333 288 218.112 288 224H224C224 218.112 219.221 213.333 213.333 213.333C207.445 213.333 202.666 218.112 202.666 224C202.666 314.688 141.055 409.173 140.437 410.133C137.429 414.677 138.325 420.757 142.549 424.234C145.472 426.645 173.653 448 256 448C338.347 448 366.528 426.645 369.451 424.213C373.675 420.736 374.571 414.677 371.563 410.133Z" fill="white"/>
<path d="M310.059 387.136L306.475 379.499C304.726 375.744 300.95 373.334 296.811 373.334H215.19C211.051 373.334 207.275 375.745 205.526 379.499L201.942 387.136C200.47 390.208 200.534 393.792 202.134 396.8C203.713 399.787 206.657 401.856 210.027 402.347C223.68 404.331 239.168 405.334 256 405.334C272.832 405.334 288.32 404.331 301.973 402.347C305.344 401.878 308.288 399.787 309.866 396.8C311.467 393.792 311.531 390.208 310.059 387.136Z" fill="white"/>
<path d="M415.829 419.115C415.893 417.899 415.936 416.683 415.914 415.467L415.807 414.059C414.996 408.491 409.983 404.438 404.436 404.928C398.825 405.355 394.516 410.048 394.58 415.659C394.687 425.387 390.484 434.475 383.081 440.619C377.3 445.44 343.913 469.334 255.998 469.334C168.083 469.334 134.699 445.44 128.939 440.64C121.515 434.496 117.312 425.408 117.419 415.68C117.483 410.069 113.302 404.8 107.691 404.352C101.739 403.989 97.238 407.36 96.448 412.907C96.171 413.845 96 415.04 96 416V458.667C96 460.864 96.683 463.019 97.941 464.811C99.285 466.731 132.544 512 256 512C379.456 512 412.715 466.731 414.059 464.811C415.318 463.019 416 460.864 416 458.667L415.829 419.115Z" fill="white"/>
</g>
<defs>
<clipPath id="clip0">
<rect width="512" height="512" fill="white"/>
</clipPath>
</defs>
</svg>
