<svg width="512" height="512" viewBox="0 0 512 512" fill="none" xmlns="http://www.w3.org/2000/svg">
<path d="M215.286 178.714H296.715V324.143H215.286V178.714Z" fill="white" stroke="black" stroke-width="10"/>
<path d="M329.143 150.429H182.857C180.57 150.429 178.714 148.574 178.714 146.286C178.714 143.998 180.569 142.143 182.857 142.143H329.143C331.431 142.143 333.286 143.998 333.286 146.286C333.286 148.574 331.431 150.429 329.143 150.429Z" fill="white" stroke="black" stroke-width="10"/>
<path d="M269.286 18.3009L269.286 18.3059C269.293 20.0314 268.951 21.7306 268.292 23.3049C260.139 22.137 251.861 22.137 243.708 23.305C243.049 21.7316 242.707 20.0325 242.714 18.3059L242.714 18.3009C242.736 10.968 248.67 5.02884 256 5.00003C263.33 5.02884 269.264 10.968 269.286 18.3009Z" fill="white" stroke="black" stroke-width="10"/>
<path d="M105.571 466.295C105.581 464.006 107.434 462.153 109.723 462.143H402.277C404.565 462.153 406.42 464.005 406.432 466.297C406.432 466.299 406.432 466.302 406.432 466.304V502.842C406.432 502.845 406.432 502.847 406.432 502.85C406.421 505.137 404.568 506.99 402.28 507H398.146V493.714C398.146 485.903 391.814 479.571 384.003 479.571C376.191 479.571 369.86 485.904 369.86 493.714V507H361.574V493.714C361.574 485.903 355.242 479.571 347.431 479.571C339.619 479.571 333.288 485.904 333.288 493.714V507H325.002V493.714C325.002 485.902 318.669 479.571 310.859 479.571C303.047 479.571 296.716 485.904 296.716 493.714V507H288.43V493.714C288.43 485.902 282.097 479.571 274.287 479.571C266.475 479.571 260.144 485.904 260.144 493.714V507H251.858V493.714C251.858 485.903 245.526 479.571 237.715 479.571C229.903 479.571 223.572 485.904 223.572 493.714V507H215.286V493.714C215.286 485.902 208.953 479.571 201.143 479.571C193.331 479.571 187 485.904 187 493.714V507H178.715V493.714C178.715 485.902 172.382 479.571 164.572 479.571C156.76 479.571 150.429 485.904 150.429 493.714V507H142.143V493.714C142.143 485.902 135.81 479.571 128 479.571C120.188 479.571 113.857 485.904 113.857 493.714V507H109.723C107.434 506.99 105.581 505.136 105.571 502.848V466.295Z" fill="white" stroke="black" stroke-width="10"/>
<path d="M329.143 360.714H182.857C180.569 360.714 178.714 358.859 178.714 356.571C178.714 354.283 180.569 352.428 182.857 352.428H329.143C331.431 352.428 333.286 354.283 333.286 356.571C333.286 358.859 331.431 360.714 329.143 360.714Z" fill="white" stroke="black" stroke-width="10"/>
<path d="M371.091 405.688L371.1 405.691L371.11 405.695C374.462 406.936 377.162 409.49 378.585 412.767C379.993 416.059 380.041 419.775 378.718 423.102C378.717 423.105 378.716 423.107 378.715 423.11L374.402 433.857H137.598L133.285 423.11C133.284 423.108 133.284 423.106 133.283 423.104C131.959 419.778 132.007 416.061 133.415 412.768C134.839 409.49 137.538 406.935 140.89 405.695L140.9 405.691L140.91 405.688L185.41 389H326.59L371.091 405.688Z" fill="white" stroke="black" stroke-width="10"/>
<path d="M323.029 47.055L312.924 77.286H312.828L311.69 80.7084L300.668 113.857H211.238L188.972 47.0598L188.969 47.0525L188.967 47.0452C188.492 45.6343 188.805 44.0778 189.789 42.9616C190.772 41.845 192.277 41.338 193.737 41.6317C195.193 41.9247 196.382 42.971 196.859 44.3763L203.711 65.0256L206.07 72.1361L211.731 67.2292C237.136 45.2092 274.863 45.2092 300.267 67.2292L305.928 72.136L308.288 65.0258L315.137 44.3852C315.138 44.3823 315.139 44.3795 315.14 44.3766C315.618 42.9693 316.808 41.9235 318.263 41.6307C319.722 41.337 321.227 41.844 322.211 42.9606C323.194 44.0768 323.508 45.6333 323.033 47.0442L323.029 47.055Z" fill="white" stroke="black" stroke-width="10"/>
</svg>
