<svg width="512" height="512" viewBox="0 0 512 512" fill="none" xmlns="http://www.w3.org/2000/svg">
<path d="M143.676 401H368.324L346.624 287.235C337.274 238.344 336.212 188.228 343.482 138.985L346.422 119H165.578L168.523 139.053C175.793 188.274 174.731 238.367 165.381 287.235L143.676 401Z" fill="white"/>
<path d="M391 415H121V477H391V415Z" fill="white"/>
<path d="M378 35H358V59C358 60.8565 357.262 62.637 355.95 63.9497C354.637 65.2625 352.857 66 351 66H311C309.143 66 307.363 65.2625 306.05 63.9497C304.738 62.637 304 60.8565 304 59V35H282V59C282 60.8565 281.262 62.637 279.95 63.9497C278.637 65.2625 276.857 66 275 66H237C235.143 66 233.363 65.2625 232.05 63.9497C230.737 62.637 230 60.8565 230 59V35H206V59C206 60.8565 205.263 62.637 203.95 63.9497C202.637 65.2625 200.857 66 199 66H159C157.143 66 155.363 65.2625 154.05 63.9497C152.737 62.637 152 60.8565 152 59V35H132V105H378V35Z" fill="white"/>
</svg>
