<?xml version="1.0"?>
<svg xmlns="http://www.w3.org/2000/svg" id="Layer_1" data-name="Layer 1" viewBox="0 0 512 512" width="512" height="512"><title>Management2</title><path d="M143.676,401H368.324l-21.7-113.765a444.011,444.011,0,0,1-3.142-148.25L346.422,119H165.578l2.945,20.053a443.607,443.607,0,0,1-3.142,148.182Z"/><rect x="121" y="415" width="270" height="62"/><path d="M378,35H358V59a7,7,0,0,1-7,7H311a7,7,0,0,1-7-7V35H282V59a7,7,0,0,1-7,7H237a7,7,0,0,1-7-7V35H206V59a7,7,0,0,1-7,7H159a7,7,0,0,1-7-7V35H132v70H378Z"/></svg>
