<svg width="512" height="512" viewBox="0 0 512 512" fill="none" xmlns="http://www.w3.org/2000/svg">
<path d="M171.366 124H340.633L338.536 138.255C338.536 138.256 338.535 138.256 338.535 138.257C331.184 188.054 332.258 238.732 341.713 288.172C341.713 288.173 341.713 288.173 341.713 288.174L362.28 396H149.72L170.292 288.175C170.292 288.174 170.292 288.173 170.292 288.172C179.747 238.755 180.821 188.1 173.47 138.326C173.47 138.325 173.47 138.324 173.469 138.322L171.366 124Z" fill="white" stroke="black" stroke-width="10"/>
<path d="M126 420H386V472H126V420Z" fill="white" stroke="black" stroke-width="10"/>
<path d="M363 59V40H373V100H137V40H147V59C147 62.1826 148.264 65.2348 150.515 67.4853C152.765 69.7357 155.817 71 159 71H199C202.183 71 205.235 69.7357 207.485 67.4853C209.736 65.2348 211 62.1826 211 59V40H225V59C225 62.1826 226.264 65.2348 228.515 67.4853C230.765 69.7357 233.817 71 237 71H275C278.183 71 281.235 69.7357 283.485 67.4853C285.736 65.2349 287 62.1826 287 59V40H299V59C299 62.1826 300.264 65.2349 302.515 67.4853C304.765 69.7357 307.817 71 311 71H351C354.183 71 357.235 69.7357 359.485 67.4853C361.736 65.2349 363 62.1826 363 59Z" fill="white" stroke="black" stroke-width="10"/>
</svg>
