<svg height="460pt" viewBox="-6 0 460 460.88" width="460pt" xmlns="http://www.w3.org/2000/svg"><path d="m256.441406 44.878906c0 17.675782-14.328125 32-32 32-17.675781 0-32-14.324218-32-32 0-17.671875 14.324219-32 32-32 17.671875 0 32 14.328125 32 32zm0 0"/><path d="m.441406 428.878906h120v32h-120zm0 0"/><path d="m272.441406 380.878906v-227.3125l115.71875-115.710937c9.351563-9.382813 9.351563-24.566407 0-33.953125l-3.902344-3.902344-105.136718 98.121094c-7.398438 6.921875-17.15625 10.769531-27.289063 10.757812h-54.785156c-10.132813.011719-19.890625-3.835937-27.285156-10.757812l-105.136719-98.121094-3.90625 3.902344c-9.351562 9.386718-9.351562 24.570312 0 33.953125l115.722656 115.710937v227.3125h40v-128h16v128zm0 0"/><path d="m328.441406 428.878906h120v32h-120zm0 0"/><path d="m136.441406 396.878906h176v64h-176zm0 0"/></svg>